<svg width="18px" height="16px" viewBox="0 0 18 16" version="1.1" xmlns="http://www.w3.org/2000/svg"
     xmlns:xlink="http://www.w3.org/1999/xlink">
    <!-- Generator: Sketch 48.2 (47327) - http://www.bohemiancoding.com/sketch -->
    <title>money</title>
    <desc>Created with Sketch.</desc>
    <defs></defs>
    <g id="mobile_app" stroke="none" stroke-width="1" fill="none" fill-rule="evenodd"
       transform="translate(-175.000000, -3431.000000)">
        <g id="money" transform="translate(176.000000, 3431.000000)" stroke="#0B84FF">
            <path d="M6.85714286,4.5 L1.11466667,4.5 C0.499047619,4.5 0,5.005875 0,5.6295 L0,13.8705 C0,14.494125 0.499047619,15 1.11466667,15 L14.8853333,15 C15.5009524,15 16,14.494125 16,13.8705 L16,5.6295 C16,5.005875 15.5009524,4.5 14.8853333,4.5 L9.14285714,4.5"
                  id="Stroke-1"></path>
            <polyline id="Stroke-7" points="5.33333333 6.375 8 9 10.6666667 6.375"></polyline>
            <path d="M8,9.04409472 L8,0.140301368" id="Stroke-9"></path>
            <path d="M16,13 L0,13" id="Stroke-3"></path>
            <path d="M16,11 L0,11" id="Stroke-5"></path>
        </g>
    </g>
</svg>