<svg width="130px" height="82px" viewBox="0 0 130 82" version="1.1" xmlns="http://www.w3.org/2000/svg"
     xmlns:xlink="http://www.w3.org/1999/xlink">
    <!-- Generator: Sketch 48.2 (47327) - http://www.bohemiancoding.com/sketch -->
    <title>promote</title>
    <desc>Created with Sketch.</desc>
    <defs></defs>
    <g id="mobile_app" stroke="none" stroke-width="1" fill="none" fill-rule="evenodd"
       transform="translate(-654.000000, -1550.000000)">
        <g id="promote" transform="translate(655.000000, 1527.000000)">
            <polyline id="Stroke-9" stroke="#0B84FF" stroke-width="2"
                      points="44.8199792 90.8636837 53.3444329 90.8636837 53.3444329 82.33923"></polyline>
            <polyline id="Stroke-13" stroke="#0B84FF" stroke-width="2"
                      points="40.5577523 80.2081165 40.5577523 84.4703434 46.9510926 99.3881374 46.9510926 103.650364 32.0332986 103.650364 32.0332986 99.3881374 25.6399584 84.9306639 25.6399584 80.2081165"></polyline>
            <path d="M92.8895334,51.0097315 C98.6904241,51.0097315 103.39166,55.9283413 103.39166,61.9956212 C103.39166,68.0629011 98.6904241,72.9815109 92.8895334,72.9815109"
                  id="Stroke-17" stroke="#0B84FF" stroke-width="2"></path>
            <path d="M19.2466181,80.2081165 L61.8688866,80.2081165 L82.8965827,95.9783559 C85.8460437,98.1925827 89.4369698,99.3881374 93.1259272,99.3881374 L93.8355879,99.3881374 L93.8355879,24.7991675 L93.1259272,24.7991675 C89.4369698,24.7991675 85.8460437,25.9947222 82.8965827,28.208949 L61.8688866,43.9791883 L19.2466181,43.9791883 C13.3626139,43.9791883 8.59105099,48.7507513 8.59105099,54.6347555 L8.59105099,69.5525494 C8.59105099,75.4365536 13.3626139,80.2081165 19.2466181,80.2081165 Z"
                  id="Stroke-19" stroke="#0B84FF" stroke-width="2"></path>
            <path d="M61.8688866,43.9791883 L61.8688866,80.2081165" id="Stroke-21" stroke="#0B84FF"
                  stroke-width="2"></path>
            <path d="M38.0322581,52.1176471 L27.7096774,52.1176471" id="Stroke-3" stroke="#0B84FF"
                  stroke-width="2"></path>
            <path d="M19.4516129,52.1176471 L23.5806452,52.1176471" id="Stroke-13" stroke="#0B84FF"
                  stroke-width="2"></path>
            <path d="M114.343079,101.246681 C122.814255,91.2368416 127.93319,78.298852 127.93319,64.1589145 C127.93319,49.6801299 122.564915,36.4629644 113.725056,26.3593557"
                  id="Stroke-23" stroke="#0B84FF" stroke-width="2"></path>
            <path d="M103.444352,31.8731854 C110.747678,40.6320616 115.146296,51.8971272 115.146296,64.1915205 C115.146296,74.6702052 111.953888,84.4030002 106.489713,92.4713956"
                  id="Stroke-25" stroke="#0B84FF" stroke-width="2"></path>
            <polygon id="Stroke-31" stroke="#0B84FF" stroke-width="2"
                     points="0.0665972945 71.6834497 8.59105099 71.6834497 8.59105099 52.5034289 0.0665972945 52.5034289"></polygon>
            <rect id="Path" x="0" y="0" width="128" height="128"></rect>
        </g>
    </g>
</svg>