<svg width="17px" height="15px" viewBox="0 0 17 15" version="1.1" xmlns="http://www.w3.org/2000/svg"
     xmlns:xlink="http://www.w3.org/1999/xlink">
    <!-- Generator: Sketch 48.2 (47327) - http://www.bohemiancoding.com/sketch -->
    <title>promote</title>
    <desc>Created with Sketch.</desc>
    <defs></defs>
    <g id="mobile_app" stroke="none" stroke-width="1" fill="none" fill-rule="evenodd"
       transform="translate(-175.000000, -3211.000000)" stroke-linecap="round">
        <g id="promote" transform="translate(176.000000, 3212.000000)" stroke="#1C8DFF">
            <path d="M5.60988571,1.75570909 L4.03388571,0.2613 L0.0338857143,3.80675455 L1.17674286,4.98857273 C0.873314286,5.9488 1.10531429,6.6378 1.74817143,7.35220909 L6.3196,12.0794818 C7.3556,13.0024818 8.37902857,13.0024818 9.17674286,12.0794818 C10.0933143,12.0546636 10.7127429,11.5128 10.8910286,10.8976636 C11.8670286,10.7251182 12.3076,10.2571182 12.6053143,9.71584545 C13.6887429,9.21061818 13.8196,8.09084545 13.1767429,7.35220909"
                  id="Stroke-1" stroke-linejoin="round"></path>
            <path d="M12.6053143,1.44282273 L11.4624571,1.44282273 C10.5161714,1.44282273 9.04702857,0.941140909 8.68302857,0.847777273 C8.31902857,0.753822727 4.68645714,1.94686818 4.41674286,2.39891364 C4.14702857,2.85155 5.28874286,4.07886818 6.32245714,3.94295909 C7.35502857,3.80705 8.88417143,3.28527727 9.33102857,3.74795909 C9.33102857,3.74795909 12.1773143,6.43955 13.1767429,7.35191364 C13.3836,7.30345909 13.5738857,7.23314091 13.7476,7.14686818 C13.9613143,7.04109545 14.1516,6.91050455 14.3196,6.76750455 C15.1664571,6.04600455 15.4624571,4.98827727 15.4624571,4.98827727 L12.6053143,1.44282273 Z"
                  id="Stroke-3" stroke-linejoin="round"></path>
            <path d="M1.74817143,7.35191364 L1.12131429,7.99955 C0.725885714,8.40905 0.826457143,9.26468636 1.17674286,9.71555 C1.90874286,10.6574591 2.7436,11.9870045 4.06531429,12.6700955 C4.54702857,12.9188682 5.3676,13.0636409 5.74817143,12.6700955 L6.3196,12.0791864"
                  id="Stroke-5"></path>
            <path d="M9.17674286,12.0791864 L7.46245714,10.3064591" id="Stroke-7"></path>
            <path d="M10.8910286,10.8973682 L9.17674286,9.12464091" id="Stroke-9"></path>
            <path d="M12.6053143,9.71555 L10.8910286,7.94282273" id="Stroke-11"></path>
        </g>
    </g>
</svg>