<svg width="17px" height="18px" viewBox="0 0 17 18" version="1.1" xmlns="http://www.w3.org/2000/svg" xmlns:xlink="http://www.w3.org/1999/xlink">
    <!-- Generator: Sketch 48.2 (47327) - http://www.bohemiancoding.com/sketch -->
    <title>transparent</title>
    <desc>Created with Sketch.</desc>
    <defs></defs>
    <g id="mobile_app" stroke="none" stroke-width="1" fill="none" fill-rule="evenodd" transform="translate(-176.000000, -3151.000000)">
        <g id="transparent" transform="translate(176.000000, 3152.000000)" stroke="#0B84FF">
            <polyline id="Stroke-13" points="3.90082645 12.5872264 1.70097671 12.5872264 1.70097671 14.7870762"></polyline>
            <path d="M1.281942,11.3158966 C-0.00753658903,8.48762314 0.541692562,5.05329106 2.86876694,2.72621668 C5.86386236,-0.268878738 10.7500953,-0.252379865 13.7451907,2.74271555 L14.736223,3.73374786" id="Stroke-15"></path>
            <path d="M15.3082573,5.06986326 C16.5977358,7.89813674 16.0485067,11.3324688 13.7214323,13.6595432 C10.7263369,16.6546386 5.84010398,16.6381397 2.84500856,13.6430443 L1.85397626,12.652012" id="Stroke-17"></path>
            <polyline id="Stroke-19" points="12.7002254 3.7878275 14.9000751 3.7878275 14.9000751 1.58797776"></polyline>
            <polyline id="Stroke-25" points="4.63410969 11.12066 4.63410969 6.72096048 6.10067618 6.72096048 6.10067618 11.12066"></polyline>
            <polyline id="Stroke-27" points="7.56724267 11.12066 7.56724267 4.52111074 9.03380917 4.52111074 9.03380917 11.12066"></polyline>
            <polyline id="Stroke-29" points="10.5003757 11.12066 10.5003757 7.82088535 11.9669421 7.82088535 11.9669421 11.12066"></polyline>
        </g>
    </g>
</svg>